# xmcd
#
# Track frame offsets:
#	150
#	13252
#	26265
#	46978
#	60734
#	73777
#	89328
#	103860
#	115898
#	135808
#	151530
#	167826
#	184741
#	198901
#	216017
#	236785
#	251529
#	268579
#	279464
#	294392
#	309700
#	327679
#	344393
#
# Disc length: 4769 seconds
#
# Revision: 0
# Processed by: cddbd v1.5.2PL0 Copyright (c) Steve Scherf et al.
# Submitted via: EZCDAudioConverter 4.0.5.1
#
DISCID=50129f17
DTITLE=Bruno and Marrone - (Bruno and Marrone) Só as Melhores
DYEAR=2004
DGENRE=Sertanejo
TTITLE0=24 Horas de Amor
TTITLE1=Agarrado Em Mim (Acústico)
TTITLE2=Bijuteria (Ao Vivo)
TTITLE3=Credo Em Cruz, Ave Maria
TTITLE4=Diga
TTITLE5=Dormi Na Praça
TTITLE6=Favo de Mel
TTITLE7=Feriado Nacional
TTITLE8=A Jiripoca vai Piá
TTITLE9=Ligação Urbana
TTITLE10=Menina (Querida)
TTITLE11=Meu Segredo
TTITLE12=Passou da Conta (Acústico)
TTITLE13=Paixão Demais
TTITLE14=Por Um Minuto (Por Un Minuto)
TTITLE15=Programa de Fim de Semana
TTITLE16=Será que Me Esqueceu
TTITLE17=Sem Vergonha
TTITLE18=Só Sei Te Amar
TTITLE19=Tchau Amor
TTITLE20=Vai dar Namoro
TTITLE21=Vida Vazia
TTITLE22=Goiânia
EXTD=
EXTT0=
EXTT1=
EXTT2=
EXTT3=
EXTT4=
EXTT5=
EXTT6=
EXTT7=
EXTT8=
EXTT9=
EXTT10=
EXTT11=
EXTT12=
EXTT13=
EXTT14=
EXTT15=
EXTT16=
EXTT17=
EXTT18=
EXTT19=
EXTT20=
EXTT21=
EXTT22=
PLAYORDER=
